<?xml version="1.0" encoding="utf-8"?>
<!-- Generator: Adobe Illustrator 19.0.0, SVG Export Plug-In . SVG Version: 6.00 Build 0)  -->
<svg version="1.1" id="Layer_1" xmlns="http://www.w3.org/2000/svg" xmlns:xlink="http://www.w3.org/1999/xlink" x="0px" y="0px"
	 viewBox="0 0 71.3 71.3" style="enable-background:new 0 0 71.3 71.3;" xml:space="preserve">
<style type="text/css">
	.st0{fill:#57A0D7;}
	.st1{fill:#FFFFFF;}
</style>
<g>
	<path class="st0" d="M35.8,71.3h-0.3C15.9,71.3,0,55.4,0,35.8v-0.3C0,15.9,15.9,0,35.5,0h0.3c19.6,0,35.5,15.9,35.5,35.5v0.3
		C71.3,55.4,55.4,71.3,35.8,71.3z"/>
	<path class="st1" d="M53.9,24.4c-1.3,0.6-2.8,1-4.3,1.2c1.5-0.9,2.7-2.4,3.3-4.1c-1.4,0.9-3,1.5-4.7,1.8c-1.4-1.5-3.3-2.4-5.5-2.4
		c-4.1,0-7.5,3.3-7.5,7.5c0,0.6,0.1,1.2,0.2,1.7c-6.2-0.3-11.7-3.3-15.4-7.8c-0.6,1.1-1,2.4-1,3.8c0,2.6,1.3,4.9,3.3,6.2
		c-1.2,0-2.4-0.4-3.4-0.9v0.1c0,3.6,2.6,6.6,6,7.3c-0.6,0.2-1.3,0.3-2,0.3c-0.5,0-0.9,0-1.4-0.1c1,3,3.7,5.1,7,5.2
		c-2.6,2-5.8,3.2-9.3,3.2c-0.6,0-1.2,0-1.8-0.1c3.3,2.1,7.2,3.4,11.5,3.4c13.7,0,21.2-11.4,21.2-21.2c0-0.3,0-0.6,0-1
		C51.6,27.2,52.9,25.9,53.9,24.4z"/>
</g>
</svg>
